PathFileType	4	(X/Y/Z)	C:\Users\Willi\Documents\Github\OpenSimMatlabBasic\ExampleData\Trials\dynamic04\marker_experimental.trc
DataRate	CameraRate	NumFrames	NumMarkers	Units	OrigDataRate	OrigDataStartFrame	OrigNumFrames
150.000000	150.000000	2	179	mm	150.000000	320	366
Frame#	Time	LFHD			LBHD			RFHD			RBHD			C7			T10			CLAV			STRN			RBAK			LSHO			LUPA			LELB			LFRA			LWRB			LWRA			LFIN			RSHO			RUPA			RELB			RFRA			RWRB			RWRA			RFIN			SACR			LASI			LT1			LT2			LT3			LS1			LS2			LS3			LHEE			LTOE			RT1			RT2			RT3			RS1			RS2			RS3			RHEE			RTOE			SACO			SACA			SACL			SACP			RASI			RM5D			LM5D			LKNE			RKNE			LANK			RANK			LKJC			RKJC			LAJC			RAJC			LTHI			RTHI			LTIB			RTIB			P_ForcePlate1			P_ForcePlate2			P_ForcePlate3			funktRKJC			funktLKJC			funktRHIP			funktLHIP			LHJC			RHJC			LKNEshank			RKNEshank			LKJCshank			RKJCshank			LHF			COP_FP1			VECTIP_FP1			RawCentreFP1			COP_FP2			VECTIP_FP2			RawCentreFP2			COP_FP3			VECTIP_FP3			RawCentreFP3			LPelvisAngles			RPelvisAngles			LFootProgressAngles			RFootProgressAngles			LHipAngles			RHipAngles			LKneeAngles			RKneeAngles			LAnkleAngles			RAnkleAngles			LFFootAngles			RFFootAngles			LAbsAnkleAngle			RAbsAnkleAngle			RNeckAngles			LNeckAngles			RSpineAngles			LSpineAngles			LShoulderAngles			LElbowAngles			LWristAngles			RShoulderAngles			RElbowAngles			RWristAngles			RThoraxAngles			LThoraxAngles			RHeadAngles			LHeadAngles			LHipPower			LKneePower			LAnklePower			RHipPower			RKneePower			RAnklePower			LWaistPower			RWaistPower			LNeckPower			RNeckPower			LShoulderPower			RShoulderPower			LElbowPower			RElbowPower			LWristPower			RWristPower			F_ForcePlate1			F_ForcePlate2			F_ForcePlate3			LHipForce			RHipForce			LKneeForce			RKneeForce			LAnkleForce			RAnkleForce			LNormalisedGRF			RNormalisedGRF			LGroundReactionForce			RGroundReactionForce			LGRF			RGRF			LWaistForce			RWaistForce			LNeckForce			RNeckForce			LShoulderForce			RShoulderForce			LElbowForce			RElbowForce			LWristForce			RWristForce			Force_FP1			RawForceFP1			Force_FP2			RawForceFP2			Force_FP3			RawForceFP3			LHipMoment			RHipMoment			LKneeMoment			RKneeMoment			LAnkleMoment			RAnkleMoment			LGroundReactionMoment			RGroundReactionMoment			LWaistMoment			RWaistMoment			LNeckMoment			RNeckMoment			LShoulderMoment			RShoulderMoment			LElbowMoment			RElbowMoment			LWristMoment			RWristMoment			RawMomentFP1			RawMomentFP2			RawMomentFP3			
		X1	Y1	Z1	X2	Y2	Z2	X3	Y3	Z3	X4	Y4	Z4	X5	Y5	Z5	X6	Y6	Z6	X7	Y7	Z7	X8	Y8	Z8	X9	Y9	Z9	X10	Y10	Z10	X11	Y11	Z11	X12	Y12	Z12	X13	Y13	Z13	X14	Y14	Z14	X15	Y15	Z15	X16	Y16	Z16	X17	Y17	Z17	X18	Y18	Z18	X19	Y19	Z19	X20	Y20	Z20	X21	Y21	Z21	X22	Y22	Z22	X23	Y23	Z23	X24	Y24	Z24	X25	Y25	Z25	X26	Y26	Z26	X27	Y27	Z27	X28	Y28	Z28	X29	Y29	Z29	X30	Y30	Z30	X31	Y31	Z31	X32	Y32	Z32	X33	Y33	Z33	X34	Y34	Z34	X35	Y35	Z35	X36	Y36	Z36	X37	Y37	Z37	X38	Y38	Z38	X39	Y39	Z39	X40	Y40	Z40	X41	Y41	Z41	X42	Y42	Z42	X43	Y43	Z43	X44	Y44	Z44	X45	Y45	Z45	X46	Y46	Z46	X47	Y47	Z47	X48	Y48	Z48	X49	Y49	Z49	X50	Y50	Z50	X51	Y51	Z51	X52	Y52	Z52	X53	Y53	Z53	X54	Y54	Z54	X55	Y55	Z55	X56	Y56	Z56	X57	Y57	Z57	X58	Y58	Z58	X59	Y59	Z59	X60	Y60	Z60	X61	Y61	Z61	X62	Y62	Z62	X63	Y63	Z63	X64	Y64	Z64	X65	Y65	Z65	X66	Y66	Z66	X67	Y67	Z67	X68	Y68	Z68	X69	Y69	Z69	X70	Y70	Z70	X71	Y71	Z71	X72	Y72	Z72	X73	Y73	Z73	X74	Y74	Z74	X75	Y75	Z75	X76	Y76	Z76	X77	Y77	Z77	X78	Y78	Z78	X79	Y79	Z79	X80	Y80	Z80	X81	Y81	Z81	X82	Y82	Z82	X83	Y83	Z83	X84	Y84	Z84	X85	Y85	Z85	X86	Y86	Z86	X87	Y87	Z87	X88	Y88	Z88	X89	Y89	Z89	X90	Y90	Z90	X91	Y91	Z91	X92	Y92	Z92	X93	Y93	Z93	X94	Y94	Z94	X95	Y95	Z95	X96	Y96	Z96	X97	Y97	Z97	X98	Y98	Z98	X99	Y99	Z99	X100	Y100	Z100	X101	Y101	Z101	X102	Y102	Z102	X103	Y103	Z103	X104	Y104	Z104	X105	Y105	Z105	X106	Y106	Z106	X107	Y107	Z107	X108	Y108	Z108	X109	Y109	Z109	X110	Y110	Z110	X111	Y111	Z111	X112	Y112	Z112	X113	Y113	Z113	X114	Y114	Z114	X115	Y115	Z115	X116	Y116	Z116	X117	Y117	Z117	X118	Y118	Z118	X119	Y119	Z119	X120	Y120	Z120	X121	Y121	Z121	X122	Y122	Z122	X123	Y123	Z123	X124	Y124	Z124	X125	Y125	Z125	X126	Y126	Z126	X127	Y127	Z127	X128	Y128	Z128	X129	Y129	Z129	X130	Y130	Z130	X131	Y131	Z131	X132	Y132	Z132	X133	Y133	Z133	X134	Y134	Z134	X135	Y135	Z135	X136	Y136	Z136	X137	Y137	Z137	X138	Y138	Z138	X139	Y139	Z139	X140	Y140	Z140	X141	Y141	Z141	X142	Y142	Z142	X143	Y143	Z143	X144	Y144	Z144	X145	Y145	Z145	X146	Y146	Z146	X147	Y147	Z147	X148	Y148	Z148	X149	Y149	Z149	X150	Y150	Z150	X151	Y151	Z151	X152	Y152	Z152	X153	Y153	Z153	X154	Y154	Z154	X155	Y155	Z155	X156	Y156	Z156	X157	Y157	Z157	X158	Y158	Z158	X159	Y159	Z159	X160	Y160	Z160	X161	Y161	Z161	X162	Y162	Z162	X163	Y163	Z163	X164	Y164	Z164	X165	Y165	Z165	X166	Y166	Z166	X167	Y167	Z167	X168	Y168	Z168	X169	Y169	Z169	X170	Y170	Z170	X171	Y171	Z171	X172	Y172	Z172	X173	Y173	Z173	X174	Y174	Z174	X175	Y175	Z175	X176	Y176	Z176	X177	Y177	Z177	X178	Y178	Z178	X179	Y179	Z179	

321	2.133333333333333	1212.92236328125	1249.712280273438	246.4412994384766	1085.609130859375	1253.8212890625	217.7171325683594	1213.743041992188	1251.229125976562	360.7687072753907	1078.002685546875	1265.38720703125	384.9910888671876	1028.0029296875	1109.846435546875	300.3933105468751	1003.330932617188	959.505859375	304.6414489746094	1145.953979492188	1070.633178710938	301.6378784179688	1174.651611328125	1017.044860839844	303.3750610351564	1002.308166503906	1041.087524414062	384.5704040527344	1083.4521484375	1083.248779296875	164.8793334960938	1098.208374023438	893.1317749023438	97.8172683715821	1121.150146484375	832.7721557617188	78.47732543945321	1159.105224609375	768.78369140625	60.4822654724122	1238.314086914062	666.293212890625	54.23544692993175	1294.319458007812	707.9609375	71.34553527832043	1321.978393554688	665.2361450195312	35.08089828491223	1073.940673828125	1091.261840820312	439.2045288085938	1030.640869140625	989.8931274414062	478.5318298339844	981.2325439453124	843.4946899414062	485.0765075683594	940.5756835937499	698.8297729492188	472.4013671875001	931.4695434570311	655.90869140625	472.5455322265626	1002.180786132812	640.1341552734375	475.1799011230469	973.4434204101561	575.5044555664062	482.6918334960938	1023.444702148438	762.3578491210938	314.5209045410157	1149.715209960938	726.6668090820312	195.2718963623048	1078.817138671875	536.4935913085938	163.4419250488282	1001.098022460938	441.8749389648438	179.3248138427735	1066.29833984375	435.8915405273438	175.0214385986329	902.9994506835938	251.9689636230469	167.9047088623048	782.830810546875	236.0396728515625	191.6772003173829	900.6072387695312	154.2137298583984	175.9307556152345	762.3056030273438	121.1922225952149	245.276336669922	889.8594970703125	45.71496200561525	221.0706481933595	1197.8603515625	530.3091430664062	443.6230773925782	1192.709716796875	415.3779296875	424.9124145507814	1238.547729492188	437.4801025390625	424.2777099609377	1253.7265625	224.1391143798828	429.6108703613283	1195.755859375	116.1768875122071	406.0237426757814	1330.584838867188	164.6608276367188	418.241424560547	1268.22021484375	32.02306747436526	343.2445068359377	1414.57421875	63.43405914306643	387.2345275878908	1059.993408203125	752.8026123046875	316.3271789550782	1064.910278320312	751.5040283203125	315.9561767578126	1059.607788085938	752.7952270507812	311.2427673339844	1072.936645507812	802.1112670898438	315.2740783691407	1166.947509765625	726.9953002929688	422.5451660156251	1400.075073242188	36.22842025756839	409.6628417968752	864.7901611328125	23.42157745361329	193.1639404296876	1027.575317382812	377.6875915527344	186.5035705566407	1246.9091796875	381.3743286132812	411.6265869140627	791.4419555664062	110.7023010253906	200.9876098632813	1294.894287109375	54.07349014282229	393.9882202148439	1027.264404296875	371.8936462402344	238.4256286621095	1239.217529296875	376.3792724609375	359.6620178222658	811.1028442382812	108.0482864379883	235.0143280029298	1312.445068359375	67.00222015380862	361.0774230957033	1067.649658203125	526.2230834960938	158.4355773925782	1192.736206054688	526.4041748046875	454.419891357422	877.1828002929688	255.6401824951172	151.3797149658204	1234.091186523438	197.4556274414063	436.153289794922	256.7200012207031	0.07899999618532701	396.4200134277344	-254.2699890136719	-0.2560999989509441	231.3000030517578	-950.1600341796875	1.404999971389795	394.6300048828124	0	0	0	0	0	0	0	0	0	0	0	0	1108.563354492188	666.0457153320312	261.5017089843751	1115.6787109375	665.6668090820312	363.2326660156251	1028.085205078125	374.0749816894531	189.2124328613282	1241.895263671875	392.6464538574219	413.9409484863283	1027.138305664062	369.2684936523438	241.2274932861329	1244.976196289062	389.1966552734375	361.3771057128908	-0.5592442750930786	2.008732080459595	0.1781039535999296	256.7200012207031	0.07899999618532701	396.4200134277344	256.7200012207031	0.07899999618532701	396.4200134277344	256.7200012207031	0.07899999618532701	396.4200134277344	-254.2699890136719	-0.2560999989509441	231.3000030517578	-254.3016357421875	-0.508408188819871	231.3088226318359	-254.2699890136719	-0.2560999989509441	231.3000030517578	-950.1600341796875	1.404999971389795	394.6300048828124	-950.1600341796875	1.404999971389795	394.6300048828124	-254.2699890136719	-0.2560999989509441	231.3000030517578	-14.70799922943115	-4.172616481781006	-1.182912707328798	-14.70799922943115	4.172616481781006	1.182912707328794	-33.02992248535156	-5.884305953979492	1.430317759513851	5.952381610870361	-12.30237293243408	-1.632734537124632	0.3393543064594275	2.811668395996093	-5.546422004699707	-37.86432266235352	5.84745454788208	-0.9767866134643605	-23.98751068115234	-23.46928215026855	2.826580286025999	-9.818341255187988	-41.22248840332031	0.7900264263153089	-6.619574546813965	20.36303329467773	-2.103583335876467	7.662500858306885	18.86113929748535	2.183906316757202	3.18055471858951e-15	2.434410097271034e-32	3.975693398236892e-16	3.18055471858951e-15	3.97569339823689e-16	3.230250776879631e-15	-11.9237232208252	0	-1.460234947630255e-15	2.675057888031006	0	3.27600108011105e-16	-5.129844665527344	0.6770286560058593	-0.9534898400306708	-5.129844665527344	-0.6770286560058593	0.9534898400306695	15.83638572692871	4.697593212127686	-0.4153177738189681	15.83638572692871	-4.697593212127686	0.4153177738189719	-3.366317510604861	-0.3691651225090016	17.95383453369141	-43.36787796020508	3.011488411072683e-12	-3.919540590360204e-15	-14.11657428741455	98.33646392822266	8.798719406127923	32.56493377685547	5.418779850006104	4.701514720916752	-32.92267990112305	2.2343396935149e-13	-4.10640970889764e-15	-4.248394966125487	82.75914001464844	-4.067633628845221	1.13089382648468	-0.0688847228884696	1.680823564529419	1.13089382648468	0.0688847228884696	-1.680823564529419	4.01606559753418	-0.9790593981742858	2.556941986083985	4.01606559753418	0.9790593981742858	-2.556941986083984	2.331467112586589e-33	0.3109120726585388	-1.903787372987744e-17	-7.653734364459781e-34	-0.1020661368966103	6.249748392588466e-18	-2.607419035726573e-34	-0.0347711555659771	2.129119218326426e-18	-5.172828554715488e-34	-0.06898209452629089	4.223935063005115e-18	1.563766981031115e-34	0.020853566005826	-1.276912642992143e-18	-7.69514201725221e-35	-0.01026183273643255	6.283560307028825e-19	nan	nan	nan	nan	nan	nan	nan	nan	nan	nan	nan	nan	1.205521051126505e-34	0.01607618853449821	-9.843826415631309e-19	1.470968192654629e-34	0.01961605064570904	-1.201136681758997e-18	-5.403829286485354e-36	-0.000720625976100564	4.412561475069964e-20	1.941424140577443e-35	0.002588980132713914	-1.585293116292092e-19	-7.739640001859022e-37	-0.0001032117288559675	6.319895668896257e-21	-3.248769110819567e-35	-0.004332385957241058	2.652821297603102e-19	256.7200012207031	0.07899999618532701	396.4200134277344	-254.3016204833985	-0.508408188819871	231.3088226318359	-950.1600341796875	1.404999971389795	394.6300048828124	-0.5592443346977234	2.008732318878174	0.1781039535999296	-0.1569354236125946	2.053723335266113	-0.2168517559766771	-0.103286899626255	0.9693289995193481	-0.03059520199894912	0.07482771575450899	0.8154788613319397	-0.1599107682704926	0.2306039184331894	0.01012812741100788	-0.01158362813293931	0.2234408110380173	-0.04963110387325287	-0.01465438026934859	0	0	0	0	0	0	0	0	0	0	0	0	0	0	0	0	0	0	nan	nan	nan	nan	nan	nan	nan	nan	nan	nan	nan	nan	-0.1362956613302231	0.5515098571777344	-0.1334850639104844	-0.21042700111866	0.5329574346542358	0.08342830091714853	0.05427230149507523	0.238919124007225	-0.03444223478436471	0.1187617629766464	0.2350821197032928	0.08323318511247635	-0.01004975102841854	0.06321821361780167	-0.00504544330760837	-0.03320987150073052	0.06544411927461624	0.06412438303232193	256.7200012207031	0.07899999618532701	396.4200134277344	0	0	0	-254.3016204833985	-0.508408188819871	231.3088226318359	-0.03163701295852661	-0.252308189868927	0.008816275745630276	-950.1600341796875	1.404999971389795	394.6300048828124	-0.03163701295852661	-0.252308189868927	0.008816275745630276	219.4482879638672	5.904601573944094	44.71620178222659	-14.45993041992188	-5.751749515533443	66.6431884765625	-20.62812805175781	0.0954281166195865	-7.144644260406497	-1.218330025672916	0.02689658850431599	25.65517807006836	9.515318870544434	-0.7451239228248596	0.6838036775589	11.4967679977417	0.8797778487205506	1.594565510749818	nan	nan	nan	nan	nan	nan	nan	nan	nan	nan	nan	nan	nan	nan	nan	nan	nan	nan	-38.84410858154297	-1.072476267814635	16.66690444946289	8.713169097900385	-11.23012542724609	36.74126815795898	-2.103615283966064	-0.07558161765336981	1.481813073158264	25.65177536010742	-0.5384150743484485	19.83080673217774	0.1006944850087167	-2.163584367008161e-16	-0.5364893078804016	-2.774852275848389	3.114901477883879e-15	4.517960071563721	0	0	0	-8.811169624328615	-13.5677375793457	14.46193504333496	-8.811169624328615	-13.5677375793457	14.46193504333496	
322	2.14	1220.469848632812	1250.08154296875	247.3824310302735	1093.13037109375	1253.987915039062	218.7480621337891	1221.377807617188	1251.904296875	361.7079162597657	1085.655029296875	1266.014770507812	386.0018615722657	1035.935302734375	1110.028076171875	301.9856567382813	1011.632995605469	959.6353149414062	306.0123596191407	1153.96533203125	1071.141723632812	303.0832824707032	1182.783813476562	1017.676391601562	304.815887451172	1010.622436523438	1041.260498046875	386.1675109863282	1091.16650390625	1083.677734375	166.4149017333985	1105.365844726562	893.294189453125	100.0852279663087	1128.029907226562	832.8056030273438	80.92466735839852	1165.932495117188	768.6865844726562	63.04035186767587	1245.1572265625	666.2131958007812	56.98277664184581	1301.177001953125	707.9407958984375	73.90799713134777	1328.678344726562	665.1483764648438	37.64019012451184	1082.167114257812	1091.628662109375	440.7201232910157	1039.175170898438	990.2852783203125	480.0567321777344	990.1325073242186	843.8130493164062	487.4187011718751	949.8926391601561	699.02197265625	475.3267517089844	940.9392700195311	656.1318969726562	475.7732849121094	1011.746032714844	640.475341796875	477.4573364257813	983.2810058593749	575.6441650390625	484.9398193359376	1032.11279296875	762.8265380859375	315.1709289550782	1158.774658203125	726.44287109375	196.6220092773438	1088.615600585938	536.2924194335938	164.1292419433595	1011.603759765625	441.0924987792969	179.5388488769532	1076.819091796875	435.5615844726562	174.893280029297	910.9625244140625	254.5397491455078	167.1191406250001	790.5510864257812	241.2023162841797	191.8993682861329	906.2760620117188	156.8130493164062	173.9801330566407	768.235595703125	127.0900344848633	243.9734344482423	891.2438354492188	45.25537490844728	220.6612548828126	1206.832641601562	531.6547241210938	444.4312133789064	1201.415161132812	416.7424011230469	426.1664123535158	1247.282836914062	438.7656555175781	425.2004394531252	1259.839233398438	224.5901336669922	430.425994873047	1199.653564453125	117.9740676879883	408.0677185058595	1335.46142578125	163.6241912841797	418.1285095214845	1269.112426757812	32.85464859008791	343.8302612304689	1416.90380859375	59.92430114746096	386.9052734375002	1068.782470703125	753.2646484375	317.2170410156251	1073.700439453125	751.9654541015625	316.8640747070313	1068.407592773438	753.2271118164062	312.1319580078126	1081.713134765625	802.5703125	315.8998718261719	1175.512817382812	728.119140625	423.6947021484376	1401.576049804688	33.09403610229495	409.5568237304689	865.3811645507812	23.94795799255372	193.1253204345704	1038.5029296875	376.9659729003906	186.0540161132813	1255.510620117188	382.5437316894531	412.6898498535158	796.256103515625	115.6731185913086	199.5894165039063	1297.51904296875	53.73033523559572	394.7435302734377	1038.464599609375	370.7254943847656	237.9252166748048	1247.528198242188	377.3769836425781	360.7859497070314	816.1664428710938	112.117919921875	233.3880920410157	1314.82470703125	66.25744628906253	361.5488281250002	1077.239135742188	526.4466552734375	158.7497863769532	1201.83251953125	527.3887329101562	455.5242919921876	884.88427734375	259.1417541503906	150.9501190185548	1240.07373046875	198.4586791992188	437.7007141113283	256.7200012207031	0.07899999618532701	396.4200134277344	-254.2699890136719	-0.2560999989509441	231.3000030517578	-950.1600341796875	1.404999971389795	394.6300048828124	0	0	0	0	0	0	0	0	0	0	0	0	1117.493896484375	666.2005615234375	263.0075988769532	1124.395751953125	666.425537109375	364.7537231445313	1039.232543945312	373.2524108886719	188.6704559326173	1250.734130859375	393.2344055175781	414.4115600585939	1038.659301757812	367.8334045410156	240.6307373046876	1253.008544921875	389.5840759277344	361.8201904296877	-0.5768336057662964	2.005490779876709	0.1732909828424452	256.7200012207031	0.07899999618532701	396.4200134277344	256.7200012207031	0.07899999618532701	396.4200134277344	256.7200012207031	0.07899999618532701	396.4200134277344	-254.2699890136719	-0.2560999989509441	231.3000030517578	-254.3016357421875	-0.508408188819871	231.3088226318359	-254.2699890136719	-0.2560999989509441	231.3000030517578	-950.1600341796875	1.404999971389795	394.6300048828124	-950.1600341796875	1.404999971389795	394.6300048828124	-254.2699890136719	-0.2560999989509441	231.3000030517578	-14.69480895996094	-3.970298528671265	-1.480157136917116	-14.69480895996094	3.970298528671265	1.480157136917112	-36.36082458496094	-5.204878807067871	1.296161890029903	4.394806385040283	-11.8889627456665	-1.807698369026183	-0.1494133174419396	2.25726294517517	-6.172758102416992	-37.8261833190918	6.192755699157715	-0.5409966111183216	-25.83998489379883	-23.76418304443359	2.708913326263426	-10.84859371185303	-40.71730804443359	1.085582733154298	-4.567625045776367	22.01882934570312	-1.57334876060486	8.085335731506348	18.37711143493652	2.239869594573974	-6.361109437179021e-15	-1.192708045940846e-15	2.7829854052356e-15	-2.385416091881692e-15	-1.590277359294755e-15	-1.863606315165127e-15	-9.965762138366699	0	-1.220453870381466e-15	3.114412069320679	0	3.814054771919454e-16	-5.212155818939209	0.6410290002822875	-1.173734188079835	-5.212155818939209	-0.6410290002822875	1.173734188079833	15.95850944519043	4.464874267578125	-0.06114431470632384	15.95850944519043	-4.464874267578125	0.06114431470632776	-3.03669333457947	-0.5342317819595326	17.60799026489258	-43.49174499511719	4.438364606396128e-12	-7.811011049980759e-15	-14.16585540771485	98.55290222167969	8.831594467163079	32.5629768371582	5.674166679382324	5.013709068298343	-32.96908187866211	-1.779520324499129e-12	-4.261180798114521e-15	-4.262013435363769	83.17673492431641	-4.558967113494879	1.269095540046692	-0.05165578424930563	1.617867588996887	1.269095540046692	0.05165578424930563	-1.617867588996887	3.962764739990234	-0.9441245794296264	2.716992378234864	3.962764739990235	0.9441245794296264	-2.716992378234863	2.813707155686808e-33	0.3752210438251495	-2.297566251465991e-17	-9.724191591072851e-34	-0.1296766549348831	7.940405019507022e-18	-3.104915666377255e-34	-0.04140550643205643	2.535356045954652e-18	-3.005776145659722e-34	-0.04008343443274498	2.454402483844697e-18	1.812431770099959e-34	0.02416962757706642	-1.4799628524419e-18	-6.565748304798194e-35	-0.008755733259022236	5.361340354924803e-19	nan	nan	nan	nan	nan	nan	nan	nan	nan	nan	nan	nan	1.427367067735056e-34	0.01903460919857025	-1.165533661402491e-18	1.694890912242445e-34	0.02260216511785984	-1.383983458269351e-18	-4.041319012538726e-36	-0.0005389288417063653	3.299987404819455e-20	2.897607199165619e-35	0.003864095080643892	-2.366075836055788e-19	-2.80566555010983e-37	-3.741486580111086e-05	2.29099978219291e-21	-2.668746129338421e-35	-0.00355889811180532	2.179196590556972e-19	256.7200012207031	0.07899999618532701	396.4200134277344	-254.3016204833985	-0.508408188819871	231.3088226318359	-950.1600341796875	1.404999971389795	394.6300048828124	-0.5768336057662964	2.005490779876709	0.1732909977436064	-0.09256759285926817	2.031875371932983	-0.1383822262287141	-0.09612391144037247	0.9867773056030273	-0.0448707155883313	0.1162468567490578	0.8057942390441895	-0.1438523530960083	0.2417606711387634	0.008737530559301375	-0.01483249105513093	0.2271319925785065	-0.05031068623065948	-0.009479235857725112	0	0	0	0	0	0	0	0	0	0	0	0	0	0	0	0	0	0	nan	nan	nan	nan	nan	nan	nan	nan	nan	nan	nan	nan	-0.1386443525552749	0.5432403087615967	-0.1393358409404755	-0.2105024009943008	0.5305461883544922	0.0753724798560142	0.05371840670704842	0.2354608923196793	-0.03770180046558381	0.116653174161911	0.2349088788032532	0.07953891158103943	-0.0102153392508626	0.06199164316058159	-0.005342382006347184	-0.03343942761421204	0.06593941152095795	0.0630195140838623	256.7200012207031	0.07899999618532701	396.4200134277344	0	0	0	-254.3016204833985	-0.508408188819871	231.3088226318359	-0.03163701295852661	-0.252308189868927	0.008816275745630276	-950.1600341796875	1.404999971389795	394.6300048828124	-0.03163701295852661	-0.252308189868927	0.008816275745630276	232.1990661621094	6.498816013336183	34.80038070678714	-26.28023910522461	-4.329831123352048	41.62973403930664	-21.72953796386719	-1.738417744636537	-13.36347579956055	3.55161905288696	0.08063743263483174	20.66241264343262	10.44606590270996	-0.8292767405509949	0.6992111802101149	12.00105381011963	0.6240831613540651	1.353546738624574	nan	nan	nan	nan	nan	nan	nan	nan	nan	nan	nan	nan	nan	nan	nan	nan	nan	nan	-38.32913970947266	-1.251271843910216	18.13143348693847	7.707016944885249	-11.1548318862915	34.86950302124023	-1.902801275253296	-0.05797153711318959	1.756941318511963	25.22208023071289	-0.577293276786803	19.60817909240723	0.1408734023571015	3.618200955909657e-16	-0.4844421148300171	-2.901930570602417	8.114463535026373e-16	4.460982322692871	0	0	0	-8.811169624328615	-13.5677375793457	14.46193504333496	-8.811169624328615	-13.5677375793457	14.46193504333496	
